<svg width="23.999999999999996" height="23.999999999999996" xmlns="http://www.w3.org/2000/svg">
 <title/>

 <g>
  <title>background</title>
  <rect fill="none" id="canvas_background" height="402" width="582" y="-1" x="-1"/>
 </g>
 <g>
  <title>Layer 1</title>
  <path id="svg_1" d="m15.72,1.755c-5.64,-2.056 -11.909,0.87 -13.949,6.495c-2.071,5.699 0.854,11.956 6.494,14.01c5.655,2.055 11.956,-0.87 14.01,-6.51c2.057,-5.67 -0.87,-11.939 -6.524,-13.995l-0.031,0zm-3.72,22.245c-6.6,0 -12,-5.4 -12,-12s5.4,-12 12,-12s12,5.4 12,12s-5.4,12 -12,12m-3.074,-18.195l0,12.391l10.754,-6.196l-10.754,-6.195zm1.049,1.769l7.65,4.426l-7.65,4.426l0,-8.852m-3.526,-0.419l0,9.689l8.401,-4.844l-8.401,-4.845zm4.577,2.219l1.785,2.626l-5.311,3.061l0,-6.122"/>
 </g>
</svg>